<svg id="Layer_1" data-name="Layer 1" xmlns="http://www.w3.org/2000/svg" viewBox="0 0 64.73 79.55"><defs><style>.cls-1{fill:#40e0d0;}.cls-2{fill:#f5f7f7;}</style></defs><title>barkspacelogo</title><path class="cls-1" d="M8.73,84a1.53,1.53,0,0,0-.56,0,.51.51,0,0,1-.17,0,.18.18,0,0,1-.15-.1.19.19,0,0,1,0-.18l.08-.12.08-.1.22-.39a.87.87,0,0,0,.09-.4c0-.07,0-.27,0-.6v-.76a1.62,1.62,0,0,0,0-.22,2.29,2.29,0,0,0,0-.25,1.3,1.3,0,0,0,0-.23c0-.21,0-.34,0-.39s0-.3,0-.37,0-.2,0-.38,0-.29,0-.37a.67.67,0,0,0-.12-.35s0,0-.09-.11L8,78.66l-.09-.08-.11-.09c-.1,0-.14-.11-.11-.2a.25.25,0,0,1,0-.07l0,0,.07,0,0,0a3.53,3.53,0,0,1,.72-.37,1.57,1.57,0,0,0,.32-.14,14.78,14.78,0,0,1,1.8-.7l.32-.13.27-.11.41-.14.24-.06.27-.06a1.08,1.08,0,0,1,1.14.3,1.87,1.87,0,0,1,.46,1,2.85,2.85,0,0,1-.22,1.73v.06a.64.64,0,0,0,0,.07l.07,0,.08.05a1.71,1.71,0,0,1,.92.93,1,1,0,0,1,.12.31,2.7,2.7,0,0,1-.05,1.37,2.45,2.45,0,0,1-.55,1,3.08,3.08,0,0,1-.75.54,1.79,1.79,0,0,1-1,.21h-.46a3.83,3.83,0,0,1-.4,0h-1l-1.6,0H8.73Zm1.32-2.69a1.84,1.84,0,0,0-.09.42c0,.15,0,.32,0,.53s0,.34,0,.42A.46.46,0,0,0,10,83a.39.39,0,0,0,.28.16h.59l.21,0,.24,0,.18,0,.84-.37a.72.72,0,0,0,.26-.23,2.86,2.86,0,0,0,.23-.41.62.62,0,0,0,0-.29,2.84,2.84,0,0,0-.06-.56.77.77,0,0,0-.48-.61,1.59,1.59,0,0,0-.75,0l-.66.14-.56.13a.58.58,0,0,0-.24.09.81.81,0,0,0-.09.31A.26.26,0,0,0,10.05,81.35ZM10,78.24c0,.07,0,.35,0,.83h0a3.17,3.17,0,0,1,0,.43.66.66,0,0,0,.19.53.26.26,0,0,0,.27.11l1-.22a1.07,1.07,0,0,0,.7-.71,1.35,1.35,0,0,0,.13-.66c-.06-.46-.24-.72-.55-.78a2.91,2.91,0,0,0-1.14,0,1.07,1.07,0,0,0-.28.08.33.33,0,0,0-.18.11A.62.62,0,0,0,10,78.24Z" transform="translate(-7.64 -4.64)"/><path class="cls-1" d="M17.46,84l-.69,0-.6,0a.6.6,0,0,1-.29-.08.2.2,0,0,1-.09-.15.27.27,0,0,1,0-.2.37.37,0,0,1,.06-.1l.05-.09a3.62,3.62,0,0,0,.25-.57,13.45,13.45,0,0,0,.42-1.84,1.91,1.91,0,0,1,0-.21q0-.1.06-.24a1.49,1.49,0,0,0,0-.21c.16-.73.25-1.13.27-1.19q.07-.36.24-1c.12-.46.2-.8.25-1a3.84,3.84,0,0,0,.11-1.17,1.44,1.44,0,0,0-.16-.59l-.06-.12a.19.19,0,0,1,0-.13.22.22,0,0,1,.05-.12h0c.49-.2.75-.3.78-.33l.79-.23.69-.2a.24.24,0,0,1,.25,0c.12.08.16.23.14.46a1,1,0,0,1,0,.12.54.54,0,0,1,0,.11,2.14,2.14,0,0,0,0,.34c.11.84.21,1.46.3,1.88q0,.1.06.27a2.9,2.9,0,0,1,.07.34c0,.12,0,.21.05.28s0,.21.06.27.07.22.16.55l.21.75c.07.24.12.5.17.77.12.63.22,1.12.32,1.48,0,.07.05.2.09.4s.07.33.1.42.11.33.3.86a.5.5,0,0,1,0,.24.3.3,0,0,1-.08.17.32.32,0,0,1-.18.06H20.18l-.41,0-.36,0a.21.21,0,0,1-.14,0,.31.31,0,0,1-.11-.22.24.24,0,0,1,.07-.2,1,1,0,0,0,.17-1s0-.24-.11-.64c0-.1,0-.17,0-.22a.5.5,0,0,0-.1-.22A.21.21,0,0,0,19,81.3l-.28,0-.35,0-.4,0q-.24,0-.33.36a3.93,3.93,0,0,0-.09,1.12,1.18,1.18,0,0,0,.21.59.69.69,0,0,1,.09.16.19.19,0,0,1,0,.13.14.14,0,0,1,0,.11A.55.55,0,0,1,17.46,84Zm.27-4.22a.57.57,0,0,0,.05.34.21.21,0,0,0,.2.12h.19l.22,0,.19,0s0,0,.05,0l.09,0a.31.31,0,0,0,.1,0A1.7,1.7,0,0,0,19,79.9a.81.81,0,0,0,.16-.27.89.89,0,0,0,0-.33c0-.08-.22-.78-.57-2l0-.06c0-.06-.05-.09-.1-.09s-.07,0-.1.08a.53.53,0,0,0-.06.14l-.24,1c0,.18-.12.59-.25,1.21C17.75,79.66,17.74,79.74,17.73,79.78Z" transform="translate(-7.64 -4.64)"/><path class="cls-1" d="M29.22,80.4q.09-.14.18,0a.53.53,0,0,1,.1.32c0,.47,0,.75,0,.83A6.91,6.91,0,0,1,29.16,83a2.16,2.16,0,0,1-.61.93.71.71,0,0,1-1.11-.08,7,7,0,0,1-.78-1.31c-.05-.1-.25-.49-.6-1.15a.44.44,0,0,1-.06-.1.52.52,0,0,1-.07-.12,2.25,2.25,0,0,0-.73-.8c-.13-.09-.19,0-.19.23s0,.45,0,.68c0,.06,0,.16,0,.32s0,.27,0,.35a1.87,1.87,0,0,0,.31,1,1.29,1.29,0,0,0,.17.23.76.76,0,0,1,.05.27.37.37,0,0,1-.08.23.65.65,0,0,1-.43.24H23.2a1.1,1.1,0,0,1-.4-.1c-.05,0-.08-.06-.09-.16s0-.08,0-.2a.08.08,0,0,1,0,0,1.73,1.73,0,0,0,.36-1.15c0-.91,0-1.8,0-2.63,0-.31,0-.77-.05-1.39S23,77.17,23,76.86c0-.51-.05-1.08-.1-1.72a2.47,2.47,0,0,0-.25-.94.52.52,0,0,1-.1-.36.32.32,0,0,1,.22-.2,7.27,7.27,0,0,1,.77-.21c.08,0,.53-.11,1.35-.25v0l1.83-.31a.84.84,0,0,1,.73.24,3.36,3.36,0,0,1,.94,1.52,3.77,3.77,0,0,1,.17.8c0,.08,0,.53.05,1.33a8.68,8.68,0,0,1-.39,1.47.25.25,0,0,1,0,.07c-.38.55-.64.92-.79,1.11l0,.07a.38.38,0,0,0,0,.33.41.41,0,0,0,0,.09l.52.77a.57.57,0,0,0,.55.2A1.09,1.09,0,0,0,29.22,80.4Zm-2.65-2.25a2.52,2.52,0,0,0,.53-1.58,3.37,3.37,0,0,0-.23-1.46,1.75,1.75,0,0,0-.69-.85,1.51,1.51,0,0,0-1-.12l-.4.08c-.15,0-.21.19-.2.47,0,1,.07,2,.11,2.75l0,1.21a.71.71,0,0,0,.21.52.39.39,0,0,0,.52,0A5.21,5.21,0,0,0,26.57,78.15Z" transform="translate(-7.64 -4.64)"/><path class="cls-1" d="M33.27,83.85a4.26,4.26,0,0,1-.63,0H30.75l-.2,0s-.07-.06-.09-.13a.54.54,0,0,1,0-.22s.05-.13.11-.27a4.26,4.26,0,0,0,.32-1.8c0-.51,0-1.36,0-2.55,0-.41,0-1.24,0-2.49,0-.25,0-.64,0-1.16s-.05-.92-.05-1.2a1.93,1.93,0,0,0-.39-1.28,1.58,1.58,0,0,1-.18-.27.3.3,0,0,1,0-.23c0-.08,0-.14.1-.15a2.34,2.34,0,0,1,.54-.17l.37-.07.41-.06.36,0,.47-.06a.53.53,0,0,1,.26,0,.32.32,0,0,1,.25.12.08.08,0,0,0,.09,0s.06,0,.08,0a.32.32,0,0,1,.16.09.25.25,0,0,1,.07.17.45.45,0,0,1,0,.23c0,.07-.07.18-.13.3a4.36,4.36,0,0,0-.35,1.9c0,.69,0,1.37,0,2.06v0l.13-.25.16-.31c0-.12.1-.2.13-.27l.87-1.71c.12-.25.29-.63.51-1.13a1.94,1.94,0,0,0,.11-.34.87.87,0,0,0,0-.48.33.33,0,0,0,0-.1s0-.08,0-.11l0-.11a.42.42,0,0,1,0-.26.24.24,0,0,1,.15-.1.38.38,0,0,1,.11.09l1.47,1.51a1.64,1.64,0,0,1,.3.4,2,2,0,0,0,.18.24c.09.1.14.17.14.2a.53.53,0,0,1,.06.35.29.29,0,0,1-.14.24s0,0,0,0l-.14,0-.13.06a.5.5,0,0,0-.13.1l-.12.1a1.78,1.78,0,0,0-.14.14l-.11.12-.12.14-.12.14a3.82,3.82,0,0,0-.37.51c-.06.09-.28.45-.66,1.09,0,0,0,.05,0,.1l-.08.11a2,2,0,0,1-.16.23,2.94,2.94,0,0,0-.18.3c.09.22.23.54.43,1a4.46,4.46,0,0,0,.37.7s0,.06,0,.07,0,.09,0,.09c.29.48.46.77.52.84a.53.53,0,0,0,.55.23,1,1,0,0,0,.76-.44c.07-.09.13-.09.2,0a.64.64,0,0,1,.09.34q0,.8,0,.87a3.81,3.81,0,0,1-1,2.52.68.68,0,0,1-1.1-.08,7.07,7.07,0,0,1-.77-1.4c0-.11-.24-.53-.59-1.27a.58.58,0,0,0-.07-.11.49.49,0,0,1-.06-.13,2.32,2.32,0,0,0-.7-.87,2.58,2.58,0,0,0-.16.33v.4A8.57,8.57,0,0,0,33,82.16a2.4,2.4,0,0,0,.24.78q.11.21.21.45a.39.39,0,0,1,0,.41A.21.21,0,0,1,33.27,83.85Z" transform="translate(-7.64 -4.64)"/><path class="cls-1" d="M43.14,79.12a3.38,3.38,0,0,1,.24,1.36s0,.2,0,.57a3.47,3.47,0,0,1-.49,1.83,5.6,5.6,0,0,1-.52.74,2.33,2.33,0,0,1-.44.37.89.89,0,0,1-.43.13h-.26a2.68,2.68,0,0,1-1.57-.55l-.17-.17-.16-.15c-.08-.08-.14-.1-.19-.08s-.1.09-.15.23l-.05.16a.91.91,0,0,1-.06.16c0,.11-.1.15-.16.14s-.11-.09-.13-.22a.88.88,0,0,1,0-.26v-.7c0-.65,0-1.44,0-2.37a.83.83,0,0,1,.12-.55c.09-.08.2,0,.32.14l.22.32.2.3a3.53,3.53,0,0,0,.68.77,5.1,5.1,0,0,0,.49.34c.11.06.21,0,.3-.11l.15-.3a1.28,1.28,0,0,0,.07-.8,4,4,0,0,0-.29-.87A4.35,4.35,0,0,0,40,78.39a2.42,2.42,0,0,1-.59-.81,1.51,1.51,0,0,0-.11-.22,1.25,1.25,0,0,1-.15-.24L39,76.93a4.45,4.45,0,0,1-.6-1.56,5.39,5.39,0,0,1-.1-1.11,2.11,2.11,0,0,1,.13-.76,6.05,6.05,0,0,1,.65-1.33,1.44,1.44,0,0,1,.22-.25c.16-.12.36-.25.57-.39l.08,0,.08,0,.07,0a1.73,1.73,0,0,1,1.32.4,3.12,3.12,0,0,0,.5.31.63.63,0,0,0,.66,0l.18-.12.17-.11c.05,0,.09,0,.14,0a.34.34,0,0,1,.06.22q0,.15,0,.48c0,.09,0,.22,0,.41s0,.32-.05.42,0,.47-.08.82-.06.59-.07.71a.49.49,0,0,1,0,.11c0,.16-.07.26-.13.29s-.11,0-.17-.13a6.35,6.35,0,0,0-1-1.28,1.48,1.48,0,0,0-.35-.28.39.39,0,0,0-.23-.06c-.17,0-.28.1-.34.31a1.07,1.07,0,0,0,.07.71l.05.15.07.16a1.15,1.15,0,0,0,0,.15l.07.15a.48.48,0,0,1,.06.14,1.13,1.13,0,0,0,.07.15s0,.08.07.12l.08.14.08.13a5.21,5.21,0,0,1,.55,1,1.27,1.27,0,0,0,.13.22,2.24,2.24,0,0,1,.27.34l.34.55c.14.25.22.38.24.41A4.89,4.89,0,0,1,43.14,79.12Z" transform="translate(-7.64 -4.64)"/><path class="cls-1" d="M50.24,74.49a4.91,4.91,0,0,1,.14.84v1.34A7.84,7.84,0,0,1,50,78.08c0,.09-.08.2-.13.3a4.34,4.34,0,0,1-.33.54,3.46,3.46,0,0,1-.58.62A2.35,2.35,0,0,1,48,80a2.76,2.76,0,0,1-1.19.08c-.13-.12-.19,0-.19.23a6.12,6.12,0,0,0,0,.74c0,.06,0,.18,0,.35s0,.3,0,.38A2,2,0,0,0,47,82.8l.15.26a.54.54,0,0,1,0,.29.57.57,0,0,1-.08.25.69.69,0,0,1-.44.25H44.74a1.1,1.1,0,0,1-.4-.11c-.05,0-.08-.08-.09-.19a1.52,1.52,0,0,1,0-.24s0,0,0,0A2.3,2.3,0,0,0,44.71,82c.07-1,.09-2,.08-3,0-.34,0-.87,0-1.58s0-1.24,0-1.6c0-.57,0-1.23,0-2a3.39,3.39,0,0,0-.22-1.13.83.83,0,0,1-.09-.43.24.24,0,0,1,.23-.17,6.17,6.17,0,0,1,.79,0l1.37.1v0c1.07.09,1.69.15,1.83.15a1.08,1.08,0,0,1,.73.43A4.6,4.6,0,0,1,50.24,74.49Zm-1.92,3.39a2.54,2.54,0,0,0,.57-1.64,3.93,3.93,0,0,0-.19-1.55,2.37,2.37,0,0,0-.66-1,1.69,1.69,0,0,0-1-.36,3.54,3.54,0,0,0-.4,0c-.15,0-.22.16-.22.46,0,1.13,0,2.14,0,3,0,.45,0,.89,0,1.33a.87.87,0,0,0,.19.59.38.38,0,0,0,.53.11A5.27,5.27,0,0,0,48.32,77.88Z" transform="translate(-7.64 -4.64)"/><path class="cls-1" d="M52.72,83.87l-.69,0-.6,0a.46.46,0,0,1-.28-.1.31.31,0,0,1-.08-.19.55.55,0,0,1,0-.26.73.73,0,0,1,.06-.14l.06-.11a5.88,5.88,0,0,0,.28-.71A21.1,21.1,0,0,0,52,80c0-.08,0-.16,0-.25l.08-.28c0-.11,0-.19.06-.25.19-.87.3-1.33.32-1.4q.09-.42.3-1.2c.13-.52.23-.88.29-1.1a4.69,4.69,0,0,0,.17-1.34,2.37,2.37,0,0,0-.13-.77l-.06-.18a.38.38,0,0,1,0-.15.17.17,0,0,1,.06-.11H54l.8.09.7.1a.33.33,0,0,1,.25.15.65.65,0,0,1,.11.54,1.11,1.11,0,0,1,0,.13.53.53,0,0,1,0,.11,1.59,1.59,0,0,0,0,.35c.06.93.13,1.63.21,2.09,0,.09,0,.19,0,.31s0,.24,0,.37,0,.24,0,.31,0,.23,0,.3,0,.25.13.61.13.64.17.82.1.54.14.83q.12,1,.24,1.56c0,.07,0,.21.07.4s.06.35.08.45l.26.87a.5.5,0,0,1,0,.24.26.26,0,0,1-.09.17.32.32,0,0,1-.18.06h-1.2a2.19,2.19,0,0,1-.33,0l-.41,0-.36,0a.17.17,0,0,1-.14-.05.3.3,0,0,1-.09-.24.25.25,0,0,1,.07-.22,1.23,1.23,0,0,0,.22-1.12s0-.27-.08-.72c0-.11,0-.19,0-.25a.8.8,0,0,0-.08-.26.2.2,0,0,0-.17-.08l-.27,0h-.35l-.4-.11c-.17,0-.28.1-.35.38a4.61,4.61,0,0,0-.14,1.34,1.42,1.42,0,0,0,.18.71,1.35,1.35,0,0,1,.08.19.26.26,0,0,1,0,.15.46.46,0,0,1,0,.14C53,83.79,52.83,83.87,52.72,83.87Zm.48-5a.87.87,0,0,0,0,.41.27.27,0,0,0,.2.19l.19,0,.22,0H54s0,0,0,0l.09,0,.11,0a2,2,0,0,0,.19-.2.59.59,0,0,0,.17-.27,1,1,0,0,0,0-.37c0-.1-.18-.91-.47-2.45a.51.51,0,0,0,0-.09c0-.06,0-.11-.09-.12s-.08,0-.11,0a.37.37,0,0,0-.07.14c-.12.45-.22.82-.29,1.1s-.15.65-.31,1.36Z" transform="translate(-7.64 -4.64)"/><path class="cls-1" d="M60.47,83.61a2,2,0,0,0-.5-.36,2.05,2.05,0,0,1-.84-1,10,10,0,0,1-.61-1.55,5.73,5.73,0,0,1-.18-2.44s0-.09,0-.11a3.53,3.53,0,0,1,.08-.83,4.16,4.16,0,0,1,.17-.65c0-.15.14-.37.27-.68a1.31,1.31,0,0,1,.17-.31c.13-.15.36-.42.69-.78l.09-.07a.38.38,0,0,0,.09-.09,1.46,1.46,0,0,1,.75-.46l.51-.1.14,0a8,8,0,0,1,.81.11,5.74,5.74,0,0,1,1.57.63c.15.08.3.18.45.28a.27.27,0,0,0,.4,0,.28.28,0,0,1,.14-.1.2.2,0,0,1,.25,0,4.18,4.18,0,0,1,.36.35,1.21,1.21,0,0,1,.14.22.53.53,0,0,1,0,.47,1,1,0,0,0-.1.19l-.09.18a6.3,6.3,0,0,0-.56,1.82c0,.08,0,.19,0,.33s0,.23,0,.27-.09.22-.18.19a.63.63,0,0,1-.23-.13.53.53,0,0,1-.09-.21s0-.07,0-.18a3.3,3.3,0,0,0-.72-2.1,1.6,1.6,0,0,0-1.31-.75,1.06,1.06,0,0,0-.78.53,3.8,3.8,0,0,0-.63,1.37.67.67,0,0,0,0,.17,7.36,7.36,0,0,0,.07,2.28,4,4,0,0,0,.47,1.23,1.22,1.22,0,0,0,.57.53,2.17,2.17,0,0,0,1.14.2,2.34,2.34,0,0,0,1.37-.74l.22-.25.18-.21c.14-.15.25-.12.34.08a4.64,4.64,0,0,1,.24.7,1.53,1.53,0,0,1,0,.3,1.13,1.13,0,0,1-.15.14l-.17.18a4.23,4.23,0,0,1-.74.78,5.45,5.45,0,0,1-.89.58l-.39.17a2.37,2.37,0,0,1-.34.13,2.29,2.29,0,0,1-1,.08L61,83.86A.78.78,0,0,1,60.47,83.61Z" transform="translate(-7.64 -4.64)"/><path class="cls-1" d="M66.69,83.91h-.45a.36.36,0,0,1-.22-.07.17.17,0,0,1-.06-.11.29.29,0,0,1,0-.16,2.85,2.85,0,0,1,.17-.26,2.08,2.08,0,0,0,.33-1,6.91,6.91,0,0,0,0-1.17V81s0-.1,0-.17a1.36,1.36,0,0,0,0-.18c0-.3,0-.47,0-.49,0-.21,0-.43,0-.66s0-.48,0-.76V78a1,1,0,0,1,0-.15,2.1,2.1,0,0,0-.26-1l0-.08,0-.11a.92.92,0,0,1,0-.09c.17-.22.33-.3.51-.25l.95.28,1,.34,1,.34,1.89.67.17.06a.75.75,0,0,1,.27.21.83.83,0,0,1,.13.3c0,.14,0,.33.08.58s0,.4.06.46a.14.14,0,0,1-.05.17s-.1,0-.19,0l-.18-.12-.26-.19-.38-.27c-.09,0-.28-.15-.58-.29l-.28-.12a2.87,2.87,0,0,1-.34-.16,8.54,8.54,0,0,0-.92-.38c-.12,0-.17,0-.18.16s0,.23,0,.4,0,.29,0,.36,0,.08,0,.13a.59.59,0,0,1,0,.11v.27c0,.37,0,.56,0,.57a.19.19,0,0,0,.17.2,1.63,1.63,0,0,0,1.36-.24l0-.05.05,0a.12.12,0,0,1,.13,0,.18.18,0,0,1,.1.12,2.17,2.17,0,0,1,0,.41,2.34,2.34,0,0,0,0,.63v.17a.64.64,0,0,1,0,.15l0,.15a.13.13,0,0,1-.05.09.12.12,0,0,1-.1,0l-.11,0A3.83,3.83,0,0,0,69,81.29a.25.25,0,0,0-.18,0,.26.26,0,0,0,0,.18c0,.43,0,.85,0,1.26,0,.17.06.24.19.22l.32,0,.37-.05.3-.07.34-.09.56-.17c.24-.07.41-.11.51-.15l.5-.17.08,0,.1,0a.3.3,0,0,1,.26.06.3.3,0,0,1,.11.26,7,7,0,0,1-.12,1,1.06,1.06,0,0,0,0,.14.46.46,0,0,1,0,.14.24.24,0,0,1-.27.23h-2.6c-1.1,0-1.76,0-2,0H67Z" transform="translate(-7.64 -4.64)"/><circle class="cls-1" cx="32.08" cy="31.79" r="31.79"/><g id="_953-paw-print-selected_2x.png" data-name="953-paw-print-selected@2x.png"><path class="cls-2" d="M45,26.67c2.87.8,6-1.65,7-5.47s-.53-7.57-3.4-8.36-6,1.65-7,5.47S42.13,25.87,45,26.67Zm13-4.42c-2.86-.8-6,1.65-7,5.48s.54,7.57,3.41,8.36,6-1.66,7-5.48S60.86,23.05,58,22.25ZM34.45,26.67c2.86-.8,4.39-4.53,3.4-8.36s-4.12-6.27-7-5.47-4.4,4.53-3.4,8.36S31.58,27.46,34.45,26.67ZM25,36.09c2.87-.8,4.4-4.54,3.41-8.36s-4.12-6.28-7-5.48-4.39,4.54-3.4,8.36S22.16,36.89,25,36.09Zm28.36,6.3A10,10,0,0,1,49,39.53a14.26,14.26,0,0,1-2.44-5.27c-.9-3-1.76-5.88-6.59-5.88h-.42c-4.84,0-5.69,2.85-6.59,5.88a14.42,14.42,0,0,1-2.44,5.27,10.07,10.07,0,0,1-4.41,2.86c-2.55,1-5.18,2.13-5.18,7.06,0,3.39,1,7,8.36,7.18a7.56,7.56,0,0,0,5.45-1.69,7.13,7.13,0,0,1,5-1.48,7.29,7.29,0,0,1,5,1.47,7.53,7.53,0,0,0,5.09,1.69h.36c7.36-.17,8.36-3.79,8.36-7.18C58.56,44.52,55.92,43.43,53.38,42.39Z" transform="translate(-7.64 -4.64)"/></g></svg>